<svg width="1604" height="394" viewBox="0 0 1604 394" fill="none" xmlns="http://www.w3.org/2000/svg">
<path d="M251.467 1.36381C202.667 9.36381 171.867 31.6305 159.733 67.7638C156.133 78.2972 154.533 95.3638 156.133 108.297C158.667 131.364 167.067 148.964 183.333 165.897C195.867 178.964 206.533 186.297 258.267 217.497C284.533 233.497 310.8 249.764 316.533 253.897C330.933 264.164 343.467 277.897 348.667 288.697C352.533 296.964 352.8 298.43 352.8 312.83C352.8 327.497 352.667 328.564 348.4 337.097C337.2 360.03 307.867 371.23 268.933 367.63C240.4 364.964 222 357.364 206 341.497C189.2 324.83 179.2 302.83 172.133 267.097L170.667 259.497H162.667H154.8V295.23C154.8 323.364 155.2 332.43 156.8 337.764C168.667 377.764 248.8 403.097 324.133 390.697C363.333 384.164 393.067 367.63 409.733 343.097C421.067 326.43 426.267 306.43 425.2 283.497C424 258.964 415.733 241.63 396.4 223.23C381.867 209.364 374.8 204.697 320.133 172.164C293.333 156.164 266.4 139.897 260.133 135.764C235.6 119.63 224.267 103.497 223.067 83.2305C220.8 45.2305 249.467 22.5638 296.133 25.2305C324.533 26.9638 341.333 33.7638 358.267 50.6972C375.867 68.2972 386.533 91.3638 393.467 126.43L394.933 134.164H402.933H410.8V98.4305C410.8 58.6972 410.133 54.0305 402.4 42.6971C390.4 24.6971 360.267 9.63048 322.8 2.56381C307.467 -0.236186 265.6 -0.902853 251.467 1.36381Z" fill="white"/>
<path d="M0.533333 173.764C0.933333 326.164 1.2 339.631 3.33333 348.831C7.86667 368.031 15.6 377.231 30.6667 381.764C36.9333 383.631 44.9333 384.031 78.8 384.031L119.467 384.164L119.867 376.031L120.267 367.897L110.533 366.964C92.8 365.364 83.0667 358.164 77.7333 342.564C75.6 336.697 75.4667 321.764 75.0667 172.431L74.8 8.83071H37.3333H0L0.533333 173.764Z" fill="white"/>
<path d="M448.133 17.364V25.8974L457.2 26.8307C478.133 28.8307 489.333 35.4974 496.4 49.764L500.8 58.8307L501.467 221.497L502.133 384.164L516.4 384.564L530.8 384.964L531.067 244.697L531.467 104.431L651.333 245.364L771.2 386.164H784.267H797.467V197.631V9.09738L785.2 9.49738C778.4 9.63071 771.733 9.89738 770.4 10.0307C768.267 10.164 768.133 16.8307 768.4 139.497C768.667 210.697 768.4 268.831 767.867 268.831C767.467 268.831 764.133 265.364 760.533 261.097C724.533 218.164 566.4 35.4974 561.2 30.8307C557.467 27.4974 550 22.564 544.533 20.0307C528.667 12.4307 514.933 10.164 479.2 9.36404L448.133 8.83071V17.364Z" fill="white"/>
<path d="M979.6 80.5636C962 119.897 940.8 167.497 932.4 186.164C924 204.83 910.933 234.297 903.2 251.497C891.467 277.63 859.067 350.03 847.333 376.43L844.133 383.497H859.2L874.133 383.364L883.733 361.764C889.067 349.897 899.333 326.964 906.667 310.83L919.867 281.497H995.6H1071.33L1078.8 299.63C1096.67 342.564 1111.2 360.964 1138.13 374.164C1155.87 382.964 1166.53 385.23 1192.8 385.364C1205.33 385.497 1217.07 385.097 1219.2 384.43C1222.53 383.497 1222.8 382.964 1222.8 376.297V369.097L1217.87 368.164C1204.53 365.764 1188.67 354.03 1178.93 339.63C1171.33 328.43 1167.47 320.164 1147.07 271.497C1136.8 246.964 1111.47 186.564 1090.8 137.497C1070.27 88.2969 1049.6 39.3636 1045.2 28.4303L1036.93 8.83025H1024.27L1011.47 8.96359L979.6 80.5636ZM1030 183.497C1046.53 222.697 1059.87 254.83 1059.6 255.097C1059.47 255.364 1030.67 255.364 995.733 255.23L932.267 254.83L965.067 180.964C988.933 127.63 998.267 107.897 998.933 109.63C999.467 111.097 1013.47 144.297 1030 183.497Z" fill="white"/>
<path d="M1214.8 17.3637V25.7637L1224.53 26.6971C1242.13 28.2971 1251.87 35.4971 1257.2 51.0971C1259.33 56.9637 1259.47 71.8971 1259.87 220.43L1260.13 383.497H1335.87C1393.47 383.497 1415.2 383.097 1426.8 381.63C1483.87 374.43 1527.33 354.164 1559.33 319.63C1579.47 298.03 1594.13 267.497 1600.93 233.497C1604.4 216.43 1604.4 173.097 1601.07 156.164C1593.73 119.63 1580.4 93.2304 1557.47 70.1637C1533.33 45.8971 1501.73 29.2304 1461.07 19.4971C1423.6 10.5637 1398.27 8.96372 1291.87 8.83038H1214.8V17.3637ZM1419.2 37.2304C1441.87 44.1637 1459.73 55.0971 1475.47 71.6304C1495.73 92.9637 1508 118.43 1515.2 153.497C1517.73 165.897 1518.13 172.43 1518.13 196.164C1518.13 225.63 1517.07 234.83 1511.33 256.564C1500 299.23 1472.13 334.43 1438.13 349.497C1419.47 357.764 1409.2 359.897 1382.8 360.564C1366.8 360.964 1354.13 360.564 1346.53 359.497L1334.8 357.764V196.83V35.8971L1344.53 34.4304C1349.73 33.7637 1366.13 33.2304 1380.8 33.3637C1405.33 33.7637 1408.4 34.0304 1419.2 37.2304Z" fill="white"/>
</svg>
